# xmcd
#
# Track frame offsets: 
#        150
#        31681
#        54209
#        89611
#        115155
#        154966
#        176320
#        197336
#        228549
#
# Disc length: 3526 seconds
#
# Revision: 1
# Processed by: cddbd v1.5.2PL0 Copyright (c) Steve Scherf et al.
# Submitted via: ExactAudioCopy v0.95b3
#
DISCID=640dc409
DTITLE=Caribbean Jazz Project - Mosaic
DYEAR=2006
DGENRE=Jazz
TTITLE0=Nardis
TTITLE1=St. Ogredol
TTITLE2=Portraits of Cuba
TTITLE3=Afro Green
TTITLE4=Wazo Dayzeel
TTITLE5=Slow Dance
TTITLE6=Spinnaker
TTITLE7=Mambo de Luna (Para Cachao)
TTITLE8=Dusk
EXTD=YEAR: 2006
EXTT0=
EXTT1=
EXTT2=
EXTT3=
EXTT4=
EXTT5=
EXTT6=
EXTT7=
EXTT8=
PLAYORDER=
